<?xml version="1.0" encoding="utf-8" ?><svg xmlns="http://www.w3.org/2000/svg" xmlns:xlink="http://www.w3.org/1999/xlink" width="1024" height="1024" viewBox="0 0 1024 1024"><path transform="scale(2 2)" d="M420.867 207.689L420.66 207.952C416.989 212.663 414.139 218.11 410.872 223.113C397.732 243.238 382.169 262.361 364.816 278.989C363.653 280.103 362.157 281.252 361.163 282.502C359.319 284.053 357.495 285.631 355.999 287.533C356.669 288.772 357.284 290.109 358.157 291.217C369.871 323.239 367.56 354.587 347.183 382.965C343.843 385.101 337.903 393.191 334.678 396.687C323.248 409.079 288.509 448.776 275.258 457.053C263.477 461.206 250.051 454.128 250.197 440.703C250.28 433.035 253.97 424.129 256.264 416.805C261.909 398.779 266.049 374.348 257.759 356.603C257.306 355.497 256.874 354.376 256.365 353.294C244.532 357.507 233.548 364.454 221.103 366.988C218.509 369.921 225.09 396.152 199.684 414.597C198.258 415.633 196.621 416.571 195.281 417.706C193.625 418.754 179.134 429.229 179.291 422.804C179.527 413.123 183.404 410.822 178.964 398.189L178.062 395.954C168.894 408.193 161.652 413.178 152.022 422.907C147.763 425.433 143.97 429.232 139.932 432.147C130.027 439.297 119.192 446.208 108.245 451.683C103.94 453.959 99.2998 456.638 94.6661 458.128C88.746 460.032 92.4008 449.836 92.7354 447.192C95.6566 424.113 107.98 380.051 122.672 360.679C123.344 359.306 124.055 357.955 124.769 356.603C121.99 356.857 119.794 357.457 117.201 358.496C115.304 358.656 113.579 358.873 111.752 359.435C107.287 360.561 103.294 362.474 99.1196 364.332C88.5307 369.044 100.472 342.181 101.833 339.463C111.675 319.808 127.738 307.884 148.337 301.093C150.658 282.383 154.601 272.705 160.675 255.671C160.946 254.866 161.252 254.059 161.484 253.242C156.731 253.663 151.95 253.129 147.183 253.25C128.993 253.711 111.394 259.364 94.5346 265.79C87.9291 268.308 76.161 273.812 69.5635 274.341C51.4769 273.357 43.4456 253.473 55.0661 239.878C60.1887 233.886 65.9551 228.275 71.4693 222.645L110.191 182.937C113.969 179.05 117.677 174.878 121.916 171.49C150.975 148.264 186.536 144.704 219.747 159.878C225.103 155.2 229.878 149.551 234.902 144.502C284.529 94.6232 352.515 63.2395 421.385 51.5108C437.767 48.7209 455.72 46.9176 461.699 67.7929C464.006 75.8459 461.26 86.8557 459.812 95.0617C452.532 136.322 441.143 170.886 420.867 207.689ZM454.877 63.6575C446.834 52.0346 437.268 53.761 425.177 55.7148C403.272 59.2545 374.889 65.6577 354.091 74.2962C354.619 76.3537 355.244 78.3157 355.999 80.301C368.563 117.225 403.069 144.397 440.527 152.681C445.379 139.961 464.084 75.4402 454.877 63.6575ZM351.671 81.8148L349.804 76.1196C304.173 92.1573 262.94 122.157 229.307 156.577C227.159 158.775 224.832 160.884 222.913 163.288C202.93 180.825 176.658 228.929 166.768 252.747L165.72 255.671C167.727 257.27 169.69 258.929 171.751 260.46C173.377 263.349 188.294 277.329 191.669 280.655L232.315 321.426C240.802 329.872 250.09 338 257.759 347.202C268.451 341.627 279.197 336.134 289.627 330.074C359.121 289.693 410.524 231.767 439.014 156.862C401.375 152.034 363.885 116.568 351.671 81.8148ZM214.812 165.55C215.57 164.798 216.338 164.054 217.082 163.288C185.316 149.851 151.008 153.594 124.322 175.447C115.309 182.827 107.302 192.581 99.0999 200.949L72.6377 228.288C63.4871 237.713 43.6208 253.12 60.6148 266.448C68.3391 272.757 77.2269 267.661 84.944 264.509C102.923 257.165 122.504 250.209 141.958 249.203C149.072 248.835 156.198 249.448 163.271 249.006C178.982 217.973 190.401 192.453 214.812 165.55ZM169.212 265.076C167.587 263.428 165.925 261.954 164.165 260.46C158.287 267.995 155.504 288.978 152.928 299.506C154.686 301.285 156.348 303.075 157.944 305.003C159.956 305.569 212.561 358.613 217.082 363.444C229.036 358.427 241.094 354.848 253.44 349.399C249.602 344.766 245.123 340.606 240.89 336.331L183.542 279.097C178.813 274.419 174.263 269.404 169.212 265.076ZM354.091 295.678C353.355 294.137 352.551 292.68 351.671 291.217L351.343 291.438C347.773 293.876 344.516 296.989 341.194 299.761C321.021 316.598 299.101 330.838 275.857 343.095C270.77 345.778 264.869 347.752 260.657 351.787C261.202 352.664 261.842 353.552 262.257 354.497C262.516 355.19 262.742 355.971 263.119 356.603C269.195 375.727 267.986 393.229 262.494 412.188C259.528 422.428 248.651 444.012 260.657 451.683C264.602 453.619 269.827 454.384 273.861 452.366C280.406 449.092 335.292 390.635 346.076 375.759C360.635 355.672 365.583 318.344 354.091 295.678ZM156.785 309.855C155.201 308.236 153.641 306.585 152.022 305.003C129.417 311.569 102.332 333.467 100.371 358.496C103.016 357.553 105.663 356.631 108.245 355.523C111.836 354.371 131.484 347.399 131.52 354.497C130.541 356.116 129.593 357.709 128.811 359.435C109.981 389.15 102 417.721 96.743 451.683C99.6864 450.788 102.396 449.267 105.129 447.877C128.509 436.191 155.149 417.119 171.222 397.064C173.196 394.601 177.051 386.491 180.564 391C184.286 395.778 185.863 405.274 185.196 411.199C185.249 413.922 185.156 416.382 184.633 419.054C186.929 417.624 189.16 416.087 191.537 414.793C207.902 405.262 216.359 388.691 216.103 369.745C213.37 365.91 209.923 362.731 206.595 359.425L156.785 309.855Z"/><path fill="#5661EE" transform="scale(2 2)" d="M454.877 63.6575C464.084 75.4402 445.379 139.961 440.527 152.681C403.069 144.397 368.563 117.225 355.999 80.301C377.015 71.5115 403.39 65.6143 425.593 61.7092C434.555 60.133 444.152 57.1725 452.428 62.3291C453.246 62.8387 453.939 63.3825 454.877 63.6575Z"/><path fill="#15BBAB" transform="scale(2 2)" d="M351.671 81.8148C363.885 116.568 401.375 152.034 439.014 156.862C410.524 231.767 359.121 289.693 289.627 330.074C279.197 336.134 268.451 341.627 257.759 347.202C250.09 338 240.802 329.872 232.315 321.426L191.669 280.655C188.294 277.329 173.377 263.349 171.751 260.46C174.743 247.057 197.932 208.335 206.105 196.638C242.448 144.628 288.208 110.47 345.114 84.9919C347.33 83.9997 349.718 83.3055 351.671 81.8148ZM393.967 152.366C387.6 132.938 369.405 119.854 348.961 120C328.517 120.146 310.511 133.49 304.423 153.007C298.334 172.524 305.559 193.739 322.293 205.483C322.746 207.942 326.853 210.205 328.821 211.455C340.114 218.626 354.384 222.235 367.646 219.138C391.147 213.651 405.869 187.516 400.155 164.479C399.177 160.539 397.673 154.602 393.967 152.366Z"/><path transform="scale(2 2)" d="M322.293 205.483C305.559 193.739 298.334 172.524 304.423 153.007C310.511 133.49 328.517 120.146 348.961 120C369.405 119.854 387.6 132.938 393.967 152.366C400.273 171.605 393.552 192.719 377.286 204.773C361.021 216.828 338.865 217.114 322.293 205.483ZM337.443 126.305C330.241 128.413 323.727 132.395 318.567 137.845C313.764 142.918 310.289 149.099 308.45 155.838C303.698 173.259 310.499 191.778 325.397 201.981C342.745 213.862 366.181 211.235 380.467 195.807C394.754 180.379 395.575 156.811 382.398 140.425C371.648 127.059 353.905 121.486 337.443 126.305Z"/><path fill="#5661EE" transform="scale(2 2)" d="M325.397 201.981C324.693 200.363 323.174 198.957 322.125 197.526C295.639 161.384 336.081 113.994 376.312 136.316C378.336 137.439 379.988 139.081 381.961 140.186L382.398 140.425C395.575 156.811 394.754 180.379 380.467 195.807C366.181 211.235 342.745 213.862 325.397 201.981Z"/><path fill="#FC625D" transform="scale(2 2)" d="M393.967 152.366C397.673 154.602 399.177 160.539 400.155 164.479C405.869 187.516 391.147 213.651 367.646 219.138C354.384 222.235 340.114 218.626 328.821 211.455C326.853 210.205 322.746 207.942 322.293 205.483C338.865 217.114 361.021 216.828 377.286 204.773C393.552 192.719 400.273 171.605 393.967 152.366Z"/><path fill="#FC625D" transform="scale(2 2)" d="M60.6148 266.448C55.4168 254.307 63.4402 247.474 71.2014 239.297C78.6883 231.408 86.3767 223.748 93.9345 215.934L116.82 192.287C120.683 188.369 124.489 184.234 128.649 180.631C151.304 161.009 186.679 155.999 214.812 165.55C190.401 192.453 178.982 217.973 163.271 249.006C156.198 249.448 149.072 248.835 141.958 249.203C122.504 250.209 102.923 257.165 84.944 264.509C77.2269 267.661 68.3391 272.757 60.6148 266.448Z"/><path fill="#FC625D" transform="scale(2 2)" d="M166.768 252.747C176.658 228.929 202.93 180.825 222.913 163.288L225.799 164.608C223.879 168.005 220.767 170.867 218.321 173.9C197.678 199.498 184.862 223.405 171.751 253.242C170.057 253.204 168.41 253.219 166.768 252.747Z"/><path fill="#15BBAB" transform="scale(2 2)" d="M361.163 282.502C362.157 281.252 363.653 280.103 364.816 278.989C382.169 262.361 397.732 243.238 410.872 223.113C414.139 218.11 416.989 212.663 420.66 207.952L420.867 207.689C421.719 214.5 381.231 269.696 376.203 272.781C372.329 277.181 362.687 287.704 358.157 291.217C357.284 290.109 356.669 288.772 355.999 287.533C357.495 285.631 359.319 284.053 361.163 282.502Z"/><path fill="#FC625D" transform="scale(2 2)" d="M160.675 255.671C138.785 252.789 108.437 262.884 88.2103 270.772C82.5284 272.987 75.7951 276.168 69.5635 274.341C76.161 273.812 87.9291 268.308 94.5346 265.79C111.394 259.364 128.993 253.711 147.183 253.25C151.95 253.129 156.731 253.663 161.484 253.242C161.252 254.059 160.946 254.866 160.675 255.671Z"/><path fill="#5661EE" transform="scale(2 2)" d="M169.212 265.076C174.263 269.404 178.813 274.419 183.542 279.097L240.89 336.331C245.123 340.606 249.602 344.766 253.44 349.399C241.094 354.848 229.036 358.427 217.082 363.444C212.561 358.613 159.956 305.569 157.944 305.003C158.688 303.219 158.904 301.028 159.287 299.133C161.652 287.425 164.987 276.27 169.212 265.076Z"/><path fill="#15BBAB" transform="scale(2 2)" d="M354.091 295.678C328.198 315.388 308.413 331.183 278.379 346.634C273.064 349.369 267.48 351.592 262.257 354.497C261.842 353.552 261.202 352.664 260.657 351.787C264.869 347.752 270.77 345.778 275.857 343.095C299.101 330.838 321.021 316.598 341.194 299.761C344.516 296.989 347.773 293.876 351.343 291.438L351.671 291.217C352.551 292.68 353.355 294.137 354.091 295.678Z"/><path fill="#FC625D" transform="scale(2 2)" d="M262.257 354.497C267.48 351.592 273.064 349.369 278.379 346.634C308.413 331.183 328.198 315.388 354.091 295.678C365.583 318.344 360.635 355.672 346.076 375.759C335.292 390.635 280.406 449.092 273.861 452.366C269.827 454.384 264.602 453.619 260.657 451.683C257.347 442.858 261.499 434.248 264.18 425.837C270.149 407.114 279.932 372.885 263.119 356.603C262.742 355.971 262.516 355.19 262.257 354.497Z"/><path fill="#FED45E" transform="scale(2 2)" d="M156.785 309.855L206.595 359.425C209.923 362.731 213.37 365.91 216.103 369.745C216.359 388.691 207.902 405.262 191.537 414.793C190.026 412.94 187.765 410.944 185.937 409.381L185.634 409.479C185.553 410.089 185.493 410.651 185.196 411.199C185.863 405.274 184.286 395.778 180.564 391C177.051 386.491 173.196 394.601 171.222 397.064C155.149 417.119 128.509 436.191 105.129 447.877C105.472 430.139 117.769 395.469 125.508 380.414C128.28 375.023 141.308 359.237 132.522 357.326C131.954 356.343 131.532 355.665 131.52 354.497C131.484 347.399 111.836 354.371 108.245 355.523C110.21 351.458 111.477 347.207 113.684 343.207C124.079 324.362 139.011 318.417 156.785 309.855Z"/><path fill="#16C9DC" transform="scale(2 2)" d="M257.759 356.603C248.846 361.798 232.713 366.921 222.913 369.745C221.987 369.193 221.563 367.923 221.103 366.988C233.548 364.454 244.532 357.507 256.365 353.294C256.874 354.376 257.306 355.497 257.759 356.603Z"/><path fill="#FED45E" transform="scale(2 2)" d="M111.752 359.435C113.579 358.873 115.304 358.656 117.201 358.496C117.564 359.266 117.929 359.972 118.404 360.679C116.067 361.373 113.938 362.375 111.752 363.444C111.775 362.109 111.754 360.77 111.752 359.435Z"/><path fill="#FED45E" transform="scale(2 2)" d="M195.281 417.706C196.621 416.571 198.258 415.633 199.684 414.597C225.09 396.152 218.509 369.921 221.103 366.988C221.563 367.923 221.987 369.193 222.913 369.745C225.096 374.224 222.682 386.713 221.117 391.264C217.556 401.624 209.746 415.456 198.616 419.054C197.496 418.629 196.354 418.237 195.281 417.706Z"/><path fill="#FC625D" transform="scale(2 2)" d="M275.258 457.053C288.509 448.776 323.248 409.079 334.678 396.687C337.903 393.191 343.843 385.101 347.183 382.965C344.564 390.302 303.774 432.756 295.347 441.62C291.825 445.325 281.292 459.043 275.258 457.053Z"/></svg>